<?xml version="1.0" encoding="UTF-8"?>
<svg version="1.1" viewBox="0 0 376 148" xmlns="http://www.w3.org/2000/svg">
<title>dirt</title>
<desc>Created with Sketch.</desc>
<defs>
<linearGradient id="b" x1="-.00069782%" x2="99.999%" y1="-96.298%" y2="-96.298%">
<stop stop-color="#593D09" offset="0"/>
<stop stop-color="#7F5200" offset="1"/>
</linearGradient>
<linearGradient id="a" x1="-1.4005e-14%" y1="-96.365%" y2="-96.365%">
<stop stop-color="#563B09" offset="0"/>
<stop stop-color="#291D04" offset="1"/>
</linearGradient>
</defs>
<g fill="none" fill-rule="evenodd">
<g transform="translate(-.00329 .1579)">
<path id="Shape" d="m273.22 0.12979c-4.0468 0-7.7473 1.2724-10.625 3.4062-2.3334-1.1111-5.009-1.75-7.8438-1.75-9.1528 0-16.562 6.5814-16.562 14.688 0 1.5884 0.28547 3.1298 0.8125 4.5625-2.5821 2.5881-4.1562 5.9623-4.1562 9.6875 0 1.2599 0.19413 2.4894 0.53125 3.6562-1.484 0.42672-2.8576 1.0229-4.125 1.7812-2.4716 1.1307-4.6046 2.754-6.1562 4.7812-3e-3 1e-3 3e-3 0.03 0 0.0312-1.5452 0.57907-3.0006 1.2208-4.375 1.9375-2.6184-6.0616-7.6159-10.459-13.562-11.5-3.0795-2.7789-6.9065-4.4375-11.094-4.4375-3.9578 0-7.6348 1.4602-10.625 3.9688-2.7716-1.9897-6.0116-3.1562-9.5-3.1562-9.5032 0-17.295 8.5333-18.156 19.406-1.6878-0.60376-3.4874-0.9375-5.3438-0.9375-5.6045 0-10.621 2.9656-13.969 7.625-0.9241-0.0458-1.8693-0.0937-2.8125-0.0937-2.9405 0-5.7741 0.22965-8.5 0.65625-3.1535-6.4016-9.0516-10.719-15.812-10.719-7.6709 0-14.238 5.5491-16.938 13.406-2.8698-7.4025-9.2036-12.562-16.594-12.562-5.5748 0-10.559 2.9458-13.906 7.5625-2.1766-1.0743-4.5524-1.6875-7.0625-1.6875-7.5378 0-14.029 5.359-16.812 13-2.7026-1.8539-5.8298-2.9375-9.1875-2.9375-6.7731 0-12.694 4.3292-15.844 10.75-1.3128-0.67385-2.7875-1.0625-4.3125-1.0625-5.9085 0-10.688 5.6072-10.688 12.531s4.779 12.531 10.688 12.531c1.7933 0 3.5154-0.49235 5-1.4062 0.0635 0.11019 0.15353 0.20378 0.21875 0.3125 1.4002 4.0233 4.5337 6.9926 8.3125 7.6562 2.0513 0.93549 4.2914 1.4688 6.625 1.4688 3.2805 0 6.3397-1.0369 9-2.8125 1.2883 5.2288 5.4045 9.0625 10.281 9.0625 0.78267 0 1.5467-0.0945 2.2812-0.28125 2.3148 1.119 4.8858 1.75 7.5938 1.75 2.2923 0 4.4763-0.46536 6.5-1.2812 1.8866 1.965 4.3684 3.1562 7.0938 3.1562 3.3957 0 6.4152-1.8587 8.375-4.75 4.4026 7.9211 16.109 13.738 30.156 14.375 1.8452 3.7681 5.3081 6.3125 9.2812 6.3125 3.5623 0 6.7118-2.0496 8.6562-5.1875 1.0118 1.0776 2.1471 2.1147 3.4375 3.0625 0.82912 5.957 5.2448 10.5 10.562 10.5 2.8953 0 5.5114-1.3419 7.4375-3.5312l0.28125 0.0312c1.6111 4.5337 5.4227 7.7188 9.875 7.7188 1.2786 0 2.5196-0.26791 3.6562-0.75 6.3336 4.3415 15.516 7.0625 25.719 7.0625 13.527 0 25.215-4.79 30.906-11.781 0.77591-0.033 1.5515-0.0922 2.3125-0.15625 2.1397 0.91781 4.5095 1.4688 7.0312 1.4688 6.9133 0 12.827-3.864 15.312-9.3438 0.41488-0.32129 0.80258-0.63275 1.1875-0.96875 0.90662 0.13994 1.8309 0.25 2.7812 0.25 1.4354 0 2.828-0.1875 4.1562-0.5 1.8452 3.7681 5.3081 6.3125 9.2812 6.3125 4.3168 0 8.0279-2.9979 9.7188-7.3125 0.92571 0.14206 1.8722 0.21875 2.8438 0.21875 3.1618 0 6.1112-0.79556 8.625-2.1562 1.913 2.1009 4.4839 3.375 7.3125 3.375 4.5404 0 8.4155-3.3229 9.9688-8 0.44648 0.0466 0.88797 0.0937 1.3438 0.0937 1.1232 0 2.2207-0.16266 3.2812-0.4375 1.7821 1.5556 3.982 2.4688 6.375 2.4688 4.4103 0 8.2068-3.1282 9.8438-7.5938 2.5109 1.3951 5.4687 2.1875 8.625 2.1875 6.4409 0 12.007-3.3298 14.75-8.2188 1.9165 0.70539 4.0248 1.0938 6.2188 1.0938 9.1528 0 16.562-6.7561 16.562-15.094 0-0.98763-0.11373-1.9403-0.3125-2.875 1.2756-2.1391 2-4.582 2-7.1875 0-4.8666-2.5439-9.1767-6.4688-11.938 0.38109-1.2705 0.59375-2.6194 0.59375-4 0-8.3376-7.4409-15.094-16.594-15.094-0.80964 0-1.5964 0.0853-2.375 0.1875 0.31963-1.1381 0.5-2.3056 0.5-3.5312 0-8.106-7.4097-14.688-16.562-14.688-0.26461 0-0.51967 0.0204-0.78125 0.0312-1.8483-3.7543-5.317-6.2812-9.2812-6.2812-1.5489 0-3.0148 0.3998-4.3438 1.0938-4.1026-7.0298-13.999-12.339-26.125-13.75 0.0168-0.27095 0.0625-0.53783 0.0625-0.8125 0-8.106-7.4097-14.656-16.562-14.656v1.5e-4zm41.719 54.688c0.61799 1.3178 1.4668 2.5341 2.4688 3.625-0.91983-0.1218-1.8671-0.20563-2.8125-0.28125 0.24469-1.0034 0.34375-2.0255 0.34375-3.0938 0-0.0843 2e-3 -0.16605 0-0.25zm-36.562 2.9688c1.2278 0.10758 2.4842 0.16176 3.75 0.1875 0.16029 0.70128 0.41869 1.3701 0.6875 2.0312-1.4295-0.69232-2.9651-1.2953-4.5625-1.8438 0.0394-0.12481 0.0892-0.24887 0.125-0.375z" fill="url(#b)"/>
<path id="Shape" d="m273.65 0.22809c-4.0468 0-7.7473 1.2724-10.625 3.4062-2.3334-1.1111-5.009-1.75-7.8438-1.75-1.3962 0-2.7363 0.18041-4.0312 0.46875 2.9248 2.2275 5.6841 4.5563 8.2188 6.9375 11.299 1.2459 20.062 10.259 20.062 21.219 0 2.3891-0.41888 4.6983-1.1875 6.8438 1.6449 5.0104 2.5312 10.165 2.5312 15.438 0 0.02 3e-5 0.0415 0 0.0625 4.4507 3.9039 7.2188 9.4502 7.2188 15.625 0 11.705-10.002 21.235-22.406 21.406-0.37775 0.4358-0.76566 0.8806-1.1562 1.3124 0.96783 2.1442 1.5 4.4562 1.5 6.8438 0 11.812-12.82 21.375-28.656 21.375-1.409 0-2.8017-0.0723-4.1562-0.2188-2.4304 10.342-16.842 18.281-34.25 18.281-6.0764 0-11.787-0.9562-16.75-2.6563-3.3093 3.8056-8.0433 6.5863-13.469 7.7188 6.0946 3.3056 14.066 5.2812 22.812 5.2812 13.527 0 25.215-4.79 30.906-11.781 0.77591-0.033 1.5515-0.0919 2.3125-0.1562 2.1397 0.9177 4.5095 1.4687 7.0312 1.4687 6.9133 0 12.827-3.8639 15.312-9.3437 0.41488-0.3214 0.80258-0.6328 1.1875-0.9688 0.90662 0.1399 1.8309 0.25 2.7812 0.25 1.4354 0 2.828-0.1875 4.1562-0.5 1.8452 3.7681 5.3081 6.3125 9.2812 6.3125 4.3168 0 8.0279-2.998 9.7188-7.3125 0.92571 0.142 1.8722 0.2188 2.8438 0.2188 3.1618 0 6.1112-0.7956 8.625-2.1563 1.913 2.1008 4.4839 3.375 7.3125 3.375 4.5404 0 8.4155-3.323 9.9688-8 0.44648 0.047 0.88797 0.0937 1.3438 0.0937 1.1232 0 2.2207-0.1626 3.2812-0.4374 1.7821 1.5555 3.982 2.4687 6.375 2.4687 4.4103 0 8.2068-3.1283 9.8438-7.5937 2.5109 1.395 5.4687 2.1874 8.625 2.1874 6.4409 0 12.007-3.3298 14.75-8.2187 1.9165 0.7054 4.0248 1.0937 6.2188 1.0937 9.1528 0 16.562-6.756 16.562-15.094 0-0.9876-0.11373-1.9403-0.3125-2.875 1.2756-2.1391 2-4.582 2-7.1875 0-4.8666-2.5439-9.1767-6.4688-11.938 0.38109-1.2705 0.59375-2.6193 0.59375-4 0-8.3376-7.4409-15.094-16.594-15.094-0.80964 0-1.5964 0.085-2.375 0.1874 0.31963-1.1381 0.5-2.3055 0.5-3.5312 0-8.106-7.4097-14.688-16.562-14.688-0.26461 0-0.51967 0.0205-0.78125 0.0312-1.8483-3.7543-5.317-6.2812-9.2812-6.2812-1.5489 0-3.0148 0.3998-4.3438 1.0938-4.1026-7.0298-13.999-12.339-26.125-13.75 0.0168-0.27095 0.0625-0.53783 0.0625-0.8125 0-8.106-7.4097-14.656-16.562-14.656v5e-5zm41.719 54.688c0.61799 1.3179 1.4668 2.5341 2.4688 3.625-0.91983-0.1218-1.8671-0.2057-2.8125-0.2812 0.24469-1.0035 0.34375-2.0256 0.34375-3.0938 0-0.084 2e-3 -0.166 0-0.25z" fill="url(#a)"/>
<path id="Shape" d="m161.42 114.54c1.4511 0 2.8054 0.42148 3.9542 1.133h0.1c4.0244 0 7.3183 3.1566 7.5197 7.131 7e-3 0.1282 0 0.25894 0 0.38876 0 1.089-0.23968 2.1205-0.65534 3.0545 0.8016 1.1959 1.2662 2.6274 1.2662 4.1764 0 0.12982 7e-3 0.26056 0 0.38876-0.20146 3.9744-3.4953 7.131-7.5197 7.131-0.39763 0-0.78518-0.0298-1.1663-0.0889-1.1802 0.77023-2.5947 1.2218-4.1097 1.2218-1.4674 0-2.8411-0.41758-3.9987-1.1441-0.14723 9e-3 -0.2948 0.0111-0.4443 0.0111-4.1543 0-7.5308-3.3655-7.5308-7.5197 0-1.0942 0.24469-2.1298 0.66645-3.0656-0.80373-1.193-1.2774-2.6176-1.2774-4.1653 0-4.1543 3.3766-7.5197 7.5308-7.5197 0.50712 0 0.9993 0.0494 1.4773 0.1444 1.1985-0.80636 2.6345-1.2774 4.1875-1.2774l-3e-5 5e-5z" fill="#734B02" stroke="#000" stroke-width="1.0663"/>
<path id="Shape" d="m163.32 116.94c1.4511 0 2.8054 0.42148 3.9542 1.133h0.1c4.0244 0 7.3183 3.1566 7.5197 7.131 7e-3 0.1282 0 0.25894 0 0.38876 0 1.089-0.23968 2.1205-0.65534 3.0545 0.8016 1.1959 1.2662 2.6274 1.2662 4.1764 0 0.12982 7e-3 0.26056 0 0.38876-0.20146 3.9744-3.4953 7.131-7.5197 7.131-0.39763 0-0.78518-0.0299-1.1663-0.0889-1.1802 0.77023-2.5947 1.2218-4.1097 1.2218-1.4674 0-2.8411-0.41758-3.9987-1.1441-0.14723 9e-3 -0.2948 0.0111-0.4443 0.0111-4.1543 0-7.5308-3.3654-7.5308-7.5197 0-1.0942 0.24468-2.1298 0.66644-3.0656-0.80373-1.193-1.2774-2.6176-1.2774-4.1653 0-4.1543 3.3766-7.5197 7.5308-7.5197 0.50712 0 0.9993 0.0494 1.4773 0.14439 1.1985-0.80635 2.6345-1.2774 4.1875-1.2774l-4e-5 5e-5z" fill="#3B2906"/>
<path id="Shape" d="m244.52 114c1.4511 0 2.8054 0.42148 3.9542 1.133h0.1c4.0244 0 7.3183 3.1566 7.5197 7.131 7e-3 0.1282 0 0.25894 0 0.38876 0 1.089-0.23968 2.1205-0.65534 3.0545 0.8016 1.1959 1.2662 2.6274 1.2662 4.1764 0 0.12982 7e-3 0.26056 0 0.38876-0.20146 3.9744-3.4953 7.131-7.5197 7.131-0.39763 0-0.78518-0.0298-1.1663-0.0889-1.1802 0.77023-2.5947 1.2218-4.1097 1.2218-1.4674 0-2.8411-0.41758-3.9987-1.1441-0.14723 9e-3 -0.2948 0.0111-0.4443 0.0111-4.1543 0-7.5308-3.3655-7.5308-7.5197 0-1.0942 0.24469-2.1298 0.66645-3.0656-0.80373-1.193-1.2774-2.6176-1.2774-4.1653 0-4.1543 3.3766-7.5197 7.5308-7.5197 0.50712 0 0.9993 0.0494 1.4773 0.1444 1.1985-0.80636 2.6345-1.2774 4.1875-1.2774l-3e-5 5e-5z" fill="#734B02" stroke="#000" stroke-width="1.0663"/>
<path id="Shape" d="m246.42 116.4c1.4511 0 2.8054 0.42148 3.9542 1.133h0.1c4.0244 0 7.3183 3.1566 7.5197 7.131 7e-3 0.1282 0 0.25894 0 0.38876 0 1.089-0.23968 2.1205-0.65534 3.0545 0.8016 1.1959 1.2662 2.6274 1.2662 4.1764 0 0.12982 7e-3 0.26056 0 0.38876-0.20146 3.9744-3.4953 7.131-7.5197 7.131-0.39763 0-0.78518-0.0299-1.1663-0.0889-1.1802 0.77023-2.5947 1.2218-4.1097 1.2218-1.4674 0-2.8411-0.41758-3.9987-1.1441-0.14723 9e-3 -0.2948 0.0111-0.4443 0.0111-4.1543 0-7.5308-3.3654-7.5308-7.5197 0-1.0942 0.24468-2.1298 0.66644-3.0656-0.80373-1.193-1.2774-2.6176-1.2774-4.1653 0-4.1543 3.3766-7.5197 7.5308-7.5197 0.50712 0 0.9993 0.0494 1.4773 0.14439 1.1985-0.80635 2.6345-1.2774 4.1875-1.2774l-4e-5 5e-5z" fill="#3B2906"/>
<path id="Shape" d="m353.45 67.412c2.2387 0 4.328 0.65023 6.1003 1.7478h0.15427c6.2086 0 11.29 4.8697 11.601 11.001 0.0108 0.19778 0 0.39947 0 0.59975 0 1.68-0.36976 3.2714-1.011 4.7123 1.2366 1.845 1.9535 4.0533 1.9535 6.443 0 0.20027 0.0108 0.40197 0 0.59975-0.3108 6.1314-5.3923 11.001-11.601 11.001-0.61344 0-1.2113-0.046-1.7992-0.13714-1.8208 1.1882-4.003 1.8849-6.3402 1.8849-2.2637 0-4.3831-0.64421-6.1689-1.765-0.22714 0.0139-0.4548 0.0171-0.68543 0.0171-6.4089 0-11.618-5.192-11.618-11.601 0-1.6881 0.37749-3.2856 1.0282-4.7295-1.2399-1.8405-1.9706-4.0382-1.9706-6.4259 0-6.4089 5.2091-11.601 11.618-11.601 0.78235 0 1.5416 0.0762 2.279 0.22277 1.849-1.244 4.0643-1.9706 6.4602-1.9706l-5e-5 9e-5z" fill="#734B02" stroke="#000" stroke-width="1.645"/>
<path id="Shape" d="m356.39 71.117c2.2387 0 4.328 0.65023 6.1003 1.7478h0.15427c6.2086 0 11.29 4.8697 11.601 11.001 0.0108 0.19778 0 0.39948 0 0.59975 0 1.68-0.36976 3.2714-1.011 4.7123 1.2366 1.845 1.9535 4.0534 1.9535 6.443 0 0.20028 0.0108 0.40197 0 0.59975-0.3108 6.1314-5.3923 11.001-11.601 11.001-0.61343 0-1.2113-0.0461-1.7992-0.13715-1.8208 1.1883-4.003 1.8849-6.3402 1.8849-2.2637 0-4.3831-0.64422-6.1689-1.765-0.22713 0.0139-0.45479 0.0171-0.68543 0.0171-6.4089 0-11.618-5.192-11.618-11.601 0-1.6881 0.37747-3.2856 1.0281-4.7294-1.2399-1.8405-1.9706-4.0382-1.9706-6.4259 0-6.4089 5.2091-11.601 11.618-11.601 0.78235 0 1.5416 0.0762 2.2791 0.22275 1.849-1.244 4.0643-1.9706 6.4602-1.9706l-6e-5 1e-4z" fill="#3B2906"/>
<path id="Shape" d="m303.21 46.938c1.5388 0 2.9748 0.44693 4.193 1.2014h0.10604c4.2674 0 7.7601 3.3472 7.9738 7.5615 7e-3 0.13595 0 0.27458 0 0.41224 0 1.1547-0.25415 2.2486-0.6949 3.239 0.85 1.2681 1.3427 2.786 1.3427 4.4286 0 0.13765 7e-3 0.27629 0 0.41223-0.21362 4.2144-3.7063 7.5615-7.9738 7.5615-0.42164 0-0.83259-0.0316-1.2367-0.0943-1.2515 0.81673-2.7514 1.2956-4.3579 1.2956-1.556 0-3.0127-0.44279-4.2401-1.2131-0.15612 0.01-0.3126 0.0118-0.47113 0.0118-4.4051 0-7.9855-3.5687-7.9855-7.9738 0-1.1603 0.25946-2.2584 0.70669-3.2508-0.85227-1.265-1.3545-2.7756-1.3545-4.4168 0-4.4051 3.5804-7.9738 7.9855-7.9738 0.53774 0 1.0596 0.0524 1.5665 0.15312 1.2709-0.85505 2.7935-1.3545 4.4403-1.3545l-3e-5 6e-5z" fill="#734B02" stroke="#000" stroke-width="1.1307"/>
<path id="Shape" d="m306.9 51.162c1.5388 0 2.9748 0.44693 4.193 1.2014h0.10604c4.2674 0 7.7601 3.3472 7.9738 7.5615 7e-3 0.13595 0 0.27458 0 0.41224 0 1.1547-0.25415 2.2486-0.69491 3.239 0.85 1.2681 1.3427 2.786 1.3427 4.4286 0 0.13766 7e-3 0.27629 0 0.41223-0.21363 4.2144-3.7063 7.5615-7.9738 7.5615-0.42164 0-0.83259-0.0317-1.2367-0.0943-1.2515 0.81674-2.7514 1.2956-4.3579 1.2956-1.556 0-3.0127-0.4428-4.2401-1.2132-0.15611 0.01-0.31259 0.0118-0.47112 0.0118-4.4051 0-7.9855-3.5687-7.9855-7.9738 0-1.1603 0.25945-2.2583 0.70668-3.2507-0.85226-1.265-1.3545-2.7756-1.3545-4.4168 0-4.4051 3.5804-7.9738 7.9855-7.9738 0.53774 0 1.0596 0.0524 1.5665 0.1531 1.2709-0.85503 2.7935-1.3545 4.4404-1.3545l-5e-5 5e-5z" fill="#3B2906" opacity=".8025"/>
<path id="Shape" d="m31.49 80.449c1.4511 0 2.8054 0.42148 3.9542 1.133h0.1c4.0244 0 7.3183 3.1566 7.5197 7.131 7e-3 0.1282 0 0.25894 0 0.38876 0 1.089-0.23968 2.1205-0.65534 3.0545 0.8016 1.1959 1.2662 2.6274 1.2662 4.1764 0 0.12982 7e-3 0.26056 0 0.38876-0.20146 3.9744-3.4953 7.131-7.5197 7.131-0.39763 0-0.78518-0.0298-1.1663-0.0889-1.1802 0.77023-2.5947 1.2218-4.1097 1.2218-1.4674 0-2.8411-0.41758-3.9987-1.1441-0.14723 9e-3 -0.2948 0.0111-0.4443 0.0111-4.1543 0-7.5308-3.3655-7.5308-7.5197 0-1.0942 0.24469-2.1298 0.66645-3.0656-0.80373-1.193-1.2774-2.6176-1.2774-4.1653 0-4.1543 3.3766-7.5197 7.5308-7.5197 0.50712 0 0.9993 0.0494 1.4773 0.1444 1.1985-0.80636 2.6345-1.2774 4.1875-1.2774l-3e-5 5e-5z" fill="#734B02" stroke="#000" stroke-width="1.0663"/>
<path id="Shape" d="m33.39 82.85c1.4511 0 2.8054 0.42148 3.9542 1.133h0.1c4.0244 0 7.3183 3.1566 7.5197 7.131 7e-3 0.1282 0 0.25894 0 0.38876 0 1.089-0.23968 2.1205-0.65534 3.0545 0.8016 1.1959 1.2662 2.6274 1.2662 4.1764 0 0.12982 7e-3 0.26056 0 0.38876-0.20146 3.9744-3.4953 7.131-7.5197 7.131-0.39763 0-0.78518-0.0299-1.1663-0.0889-1.1802 0.77023-2.5947 1.2218-4.1097 1.2218-1.4674 0-2.8411-0.41758-3.9987-1.1441-0.14723 9e-3 -0.2948 0.0111-0.4443 0.0111-4.1543 0-7.5308-3.3654-7.5308-7.5197 0-1.0942 0.24468-2.1298 0.66644-3.0656-0.80373-1.193-1.2774-2.6176-1.2774-4.1653 0-4.1543 3.3766-7.5197 7.5308-7.5197 0.50712 0 0.9993 0.0494 1.4773 0.14439 1.1985-0.80635 2.6345-1.2774 4.1875-1.2774l-4e-5 5e-5z" fill="#3B2906"/>
<path id="Shape" d="m108.65 85.481c1.4511 0 2.8054 0.42148 3.9542 1.133h0.1c4.0244 0 7.3183 3.1566 7.5197 7.131 7e-3 0.1282 0 0.25894 0 0.38876 0 1.089-0.23968 2.1205-0.65534 3.0545 0.8016 1.1959 1.2662 2.6274 1.2662 4.1764 0 0.12982 7e-3 0.26056 0 0.38876-0.20146 3.9744-3.4953 7.131-7.5197 7.131-0.39763 0-0.78518-0.0298-1.1663-0.0889-1.1802 0.77023-2.5947 1.2218-4.1097 1.2218-1.4674 0-2.8411-0.41758-3.9987-1.1441-0.14723 9e-3 -0.2948 0.0111-0.4443 0.0111-4.1543 0-7.5308-3.3655-7.5308-7.5197 0-1.0942 0.24469-2.1298 0.66645-3.0656-0.80373-1.193-1.2774-2.6176-1.2774-4.1653 0-4.1543 3.3766-7.5197 7.5308-7.5197 0.50712 0 0.9993 0.0494 1.4773 0.1444 1.1985-0.80636 2.6345-1.2774 4.1875-1.2774l-3e-5 5e-5z" fill="#734B02" stroke="#000" stroke-width="1.0663"/>
<path id="Shape" d="m110.55 87.882c1.4511 0 2.8054 0.42148 3.9542 1.133h0.1c4.0244 0 7.3183 3.1566 7.5197 7.131 7e-3 0.1282 0 0.25894 0 0.38876 0 1.089-0.23968 2.1205-0.65534 3.0545 0.8016 1.1959 1.2662 2.6274 1.2662 4.1764 0 0.12982 7e-3 0.26056 0 0.38876-0.20146 3.9744-3.4953 7.131-7.5197 7.131-0.39763 0-0.78518-0.0299-1.1663-0.0889-1.1802 0.77023-2.5947 1.2218-4.1097 1.2218-1.4674 0-2.8411-0.41758-3.9987-1.1441-0.14723 9e-3 -0.2948 0.0111-0.4443 0.0111-4.1543 0-7.5308-3.3654-7.5308-7.5197 0-1.0942 0.24468-2.1298 0.66644-3.0656-0.80373-1.193-1.2774-2.6176-1.2774-4.1653 0-4.1543 3.3766-7.5197 7.5308-7.5197 0.50712 0 0.9993 0.0494 1.4773 0.14439 1.1985-0.80635 2.6345-1.2774 4.1875-1.2774l-4e-5 5e-5z" fill="#3B2906" fill-opacity=".507"/>
<path id="Shape" d="m273.04 76.146c1.463 0 2.8283 0.26434 3.9865 0.71057h0.10082c4.0573 0 7.378 1.9797 7.5811 4.4724 7e-3 0.0804 0 0.1624 0 0.24382 0 0.68297-0.24163 1.3299-0.66068 1.9157 0.80814 0.75006 1.2766 1.6478 1.2766 2.6193 0 0.0814 7e-3 0.16342 0 0.24382-0.20311 2.4926-3.5238 4.4724-7.5811 4.4724-0.40087 0-0.79158-0.0187-1.1758-0.0557-1.1898 0.48307-2.6159 0.7663-4.1433 0.7663-1.4793 0-2.8643-0.2619-4.0313-0.71753-0.14843 6e-3 -0.29721 7e-3 -0.44793 7e-3 -4.1882 0-7.5923-2.1108-7.5923-4.7162 0-0.68629 0.24669-1.3357 0.67189-1.9227-0.81029-0.74823-1.2878-1.6417-1.2878-2.6124 0-2.6055 3.4041-4.7162 7.5923-4.7162 0.51126 0 1.0074 0.031 1.4893 0.0906 1.2083-0.50573 2.656-0.80113 4.2217-0.80113l-4e-5 -9e-5z" fill="#734B02" stroke="#000" stroke-width=".8479"/>
<path id="Shape" d="m274.96 77.652c1.463 0 2.8283 0.26435 3.9865 0.71057h0.10081c4.0573 0 7.378 1.9797 7.5811 4.4724 7e-3 0.0804 0 0.1624 0 0.24382 0 0.68297-0.24164 1.3299-0.66069 1.9157 0.80814 0.75006 1.2766 1.6478 1.2766 2.6194 0 0.0814 7e-3 0.16342 0 0.24382-0.2031 2.4926-3.5238 4.4724-7.5811 4.4724-0.40088 0-0.79159-0.0187-1.1758-0.0558-1.1898 0.48308-2.6159 0.7663-4.1433 0.7663-1.4793 0-2.8643-0.26189-4.0313-0.71753-0.14843 6e-3 -0.2972 7e-3 -0.44792 7e-3 -4.1882 0-7.5923-2.1107-7.5923-4.7162 0-0.68628 0.24668-1.3357 0.67188-1.9227-0.81029-0.74823-1.2878-1.6417-1.2878-2.6124 0-2.6055 3.4041-4.7162 7.5923-4.7162 0.51126 0 1.0074 0.031 1.4894 0.0906 1.2083-0.50573 2.656-0.80113 4.2217-0.80113l-4e-5 -1e-5z" fill="#3B2906" fill-opacity=".507"/>
<path id="Shape" d="m81.753 45.995c1.463 0 2.8283 0.26434 3.9865 0.71057h0.10082c4.0573 0 7.378 1.9797 7.5811 4.4724 7e-3 0.0804 0 0.1624 0 0.24382 0 0.68297-0.24163 1.3299-0.66068 1.9157 0.80814 0.75006 1.2766 1.6478 1.2766 2.6193 0 0.0814 7e-3 0.16342 0 0.24382-0.20311 2.4926-3.5238 4.4724-7.5811 4.4724-0.40087 0-0.79158-0.0187-1.1758-0.0557-1.1898 0.48307-2.6159 0.7663-4.1433 0.7663-1.4793 0-2.8643-0.2619-4.0313-0.71753-0.14843 6e-3 -0.29721 7e-3 -0.44793 7e-3 -4.1882 0-7.5923-2.1108-7.5923-4.7162 0-0.68629 0.24669-1.3357 0.67189-1.9227-0.81029-0.74823-1.2878-1.6417-1.2878-2.6124 0-2.6055 3.4041-4.7162 7.5923-4.7162 0.51126 0 1.0074 0.031 1.4893 0.0906 1.2083-0.50573 2.656-0.80113 4.2217-0.80113l-4e-5 -9e-5z" fill="#734B02" stroke="#000" stroke-width=".8479"/>
<path id="Shape" d="m83.668 47.501c1.463 0 2.8283 0.26435 3.9865 0.71057h0.10081c4.0573 0 7.378 1.9797 7.5811 4.4724 7e-3 0.0804 0 0.1624 0 0.24382 0 0.68297-0.24164 1.3299-0.66069 1.9157 0.80814 0.75006 1.2766 1.6478 1.2766 2.6194 0 0.0814 7e-3 0.16342 0 0.24382-0.2031 2.4926-3.5238 4.4724-7.5811 4.4724-0.40088 0-0.79159-0.0187-1.1758-0.0558-1.1898 0.48308-2.6159 0.7663-4.1433 0.7663-1.4793 0-2.8643-0.26189-4.0313-0.71753-0.14843 6e-3 -0.2972 7e-3 -0.44792 7e-3 -4.1882 0-7.5923-2.1107-7.5923-4.7162 0-0.68628 0.24668-1.3357 0.67188-1.9227-0.81029-0.74823-1.2878-1.6417-1.2878-2.6124 0-2.6055 3.4041-4.7162 7.5923-4.7162 0.51126 0 1.0074 0.031 1.4894 0.0906 1.2083-0.50573 2.656-0.80113 4.2217-0.80113l-4e-5 -1e-5z" fill="#3B2906" fill-opacity=".507"/>
<path id="c" d="m206.58 62.513c2.2541 0 4.3577 0.40728 6.1422 1.0948h0.15534c6.2512 0 11.368 3.0503 11.68 6.8908 0.0108 0.12388 0 0.25022 0 0.37567 0 1.0523-0.37229 2.0491-1.0179 2.9517 1.2451 1.1556 1.9669 2.5389 1.9669 4.0357 0 0.12542 0.0108 0.25179 0 0.37567-0.31294 3.8405-5.4293 6.8908-11.68 6.8908-0.61763 0-1.2196-0.0288-1.8116-0.0858-1.8332 0.74428-4.0304 1.1807-6.3837 1.1807-2.2793 0-4.4131-0.40352-6.2112-1.1055-0.22869 9e-3 -0.45793 0.0108-0.69015 0.0108-6.4529 0-11.698-3.2521-11.698-7.2665 0-1.0574 0.38009-2.058 1.0352-2.9624-1.2484-1.1528-1.9841-2.5294-1.9841-4.025 0-4.0144 5.2449-7.2665 11.698-7.2665 0.78772 0 1.5522 0.0478 2.2947 0.1396 1.8617-0.7792 4.0922-1.2343 6.5045-1.2343l-6e-5 -1.8e-4z" fill="#734B02" stroke="#000" stroke-width="1.3064"/>
<path d="m209.54 64.834c2.2541 0 4.3577 0.40729 6.1422 1.0948h0.15532c6.2512 0 11.368 3.0503 11.68 6.8908 0.0108 0.12387 0 0.25022 0 0.37566 0 1.0523-0.37231 2.0491-1.018 2.9517 1.2451 1.1556 1.9669 2.5389 1.9669 4.0357 0 0.12542 0.0108 0.25179 0 0.37567-0.31293 3.8405-5.4293 6.8908-11.68 6.8908-0.61765 0-1.2196-0.0288-1.8116-0.086-1.8332 0.7443-4.0304 1.1807-6.3837 1.1807-2.2793 0-4.4131-0.4035-6.2112-1.1055-0.22869 9e-3 -0.45791 0.0108-0.69013 0.0108-6.4529 0-11.698-3.2521-11.698-7.2665 0-1.0574 0.38007-2.058 1.0352-2.9624-1.2484-1.1528-1.9841-2.5294-1.9841-4.025 0-4.0143 5.2449-7.2665 11.698-7.2665 0.78772 0 1.5522 0.0478 2.2947 0.13959 1.8617-0.7792 4.0922-1.2343 6.5045-1.2343h-7e-5z" fill="#3B2906" fill-opacity=".507"/>
</g>
</g>
</svg>
