<?xml version="1.0" encoding="UTF-8"?>
<svg version="1.1" viewBox="0 0 197 276" xmlns="http://www.w3.org/2000/svg">
<title>mole</title>
<desc>Created with Sketch.</desc>
<defs>
<linearGradient id="e" x1="-2.912%" x2="102.93%" y1="1913.8%" y2="1913.8%">
<stop stop-color="#F1AAC2" offset="0"/>
<stop stop-color="#E5638F" offset="1"/>
</linearGradient>
<linearGradient id="d" x1="102.91%" x2="-2.931%" y1="1911.5%" y2="1911.5%">
<stop stop-color="#F1AAC2" offset="0"/>
<stop stop-color="#E5638F" offset="1"/>
</linearGradient>
<linearGradient id="c" x1="27.36%" x2="90.184%" y1="18.787%" y2="90.34%">
<stop stop-color="#FFCEAE" offset="0"/>
<stop stop-color="#FFB280" offset="1"/>
</linearGradient>
<linearGradient id="b" x1="-8.6108%" x2="108.56%" y1="1770.3%" y2="1770.3%">
<stop stop-color="#8A8A8A" offset="0"/>
<stop stop-color="#F1F1F1" offset=".2857"/>
<stop stop-color="#fff" offset="1"/>
</linearGradient>
<linearGradient id="a" x1="-8.6333%" x2="108.53%" y1="1772.2%" y2="1772.2%">
<stop stop-color="#8A8A8A" offset="0"/>
<stop stop-color="#F1F1F1" offset=".2857"/>
<stop stop-color="#fff" offset="1"/>
</linearGradient>
</defs>
<g fill="none" fill-rule="evenodd">
<g transform="translate(3.3234 2.0167)">
<path id="Shape" d="m94.768 0.91011c-0.24448 0-0.57445 0.037747-0.83957 0.041911v0.041911c-14.626 0.17039-50.182 3.2657-63.262 35.136-6.5189-8.6647-0.0053732 0.0026866-21.031-19.94 0 0-26.38 25.847 9.6131 44.203 12.502 115.99-12.968 160.57 61.037 158.97 4.2162-0.090807 8.8448-0.029552 13.643 0.083957h0.12587l2.1829 0.041912v-0.083957c4.8024-0.11378 9.4234-0.17486 13.643-0.083957 74.005 1.5933 48.535-42.979 61.037-158.97 35.993-18.356 9.6131-44.203 9.6131-44.203-21.026 19.943-14.512 11.275-21.031 19.94-13.521-32.946-51.128-35.178-64.731-35.178l6.72e-5 2.015e-4z" fill="#333" stroke="#000" stroke-width="5.81"/>
<path id="Shape" d="m166.44 194.15c0 42.529-31.198 77.005-69.682 77.005-38.484 0-69.682-34.476-69.682-77.005s31.198-77.005 69.682-77.005c38.484 0 69.682 34.476 69.682 77.005z" fill="#93939F" stroke="#000" stroke-width="2.7051"/>
<path id="Shape" d="m95.721 118.04c37.428 1.3307 67.417 35.262 67.417 76.946 0 39.342-26.697 71.758-61.163 76.401 24.048-6.714 42.23-38.118 42.23-75.855 0-40.953-21.404-74.458-48.485-77.03v-0.46176z" fill="#7F7F8D"/>
<path id="Shape" d="m95.54 116.9c-37.428 1.3307-67.417 35.262-67.417 76.946 0 39.342 26.697 71.758 61.163 76.401-24.048-6.714-42.23-38.118-42.23-75.855 0-40.953 21.404-74.458 48.485-77.03v-0.46176z" fill="#C1C1C8"/>
<path id="Shape" d="m69.513 29.448c-17.275 0-31.304 16.22-31.304 36.208s14.029 36.206 31.304 36.206c10.152 0 19.16-5.6067 24.879-14.283 5.7171 8.6821 14.746 14.283 24.904 14.283 17.269 0 31.301-16.222 31.301-36.206s-14.031-36.208-31.301-36.208c-10.156 0-19.187 5.6047-24.904 14.285-5.719-8.6744-14.728-14.285-24.879-14.285z" fill="#fff" stroke="#000" stroke-width="5.4845"/>
<path id="Shape" d="m134.87 32.948c0.38218 2.2977 0.56362 4.6843 0.56362 7.1104 0 20.64-14.464 37.373-32.3 37.373-10.491 0-19.849-5.774-25.754-14.741-5.9067 8.961-15.182 14.741-25.667 14.741-5.2015 0-10.125-1.4164-14.481-3.9454 2.8731 17.247 15.994 30.306 31.737 30.306 10.485 0 19.803-5.8234 25.71-14.784 5.9047 8.967 15.219 14.784 25.71 14.784 17.836 0 32.344-16.776 32.344-37.416 0-14.626-7.2791-27.282-17.863-33.428z" fill="#A5A5A5" opacity=".3374"/>
<g id="g" transform="translate(73.931 58.411)">
<path id="Shape" d="m18.482 9.695c0 5.0044-4.0593 9.0617-9.0636 9.0617-5.0044 0-9.0617-4.0573-9.0617-9.0617 0-5.0063 4.0593-9.0636 9.0617-9.0636 5.0063 0.0019367 9.0636 4.0573 9.0636 9.0636z" fill="#000" stroke="#000" stroke-width="3.4763"/>
<path id="Shape" d="m8.5001 6.5208c0 1.2976-1.0536 2.3492-2.3511 2.3492-1.2976 0-2.3492-1.0516-2.3492-2.3492s1.0516-2.3511 2.3492-2.3511c1.2976 0 2.3511 1.0536 2.3511 2.3511z" fill="#fff"/>
</g>
<g transform="translate(97.171 58.411)">
<path id="Shape" d="m18.193 9.695c0 5.0044-4.0573 9.0617-9.0617 9.0617-5.0063 0-9.0636-4.0573-9.0636-9.0617 0-5.0063 4.0573-9.0636 9.0636-9.0636 5.0063 0 9.0617 4.0573 9.0617 9.0636z" fill="#000" stroke="#000" stroke-width="3.4763"/>
<path id="Shape" d="m8.2096 6.5208c0 1.2976-1.0516 2.3492-2.3492 2.3492s-2.3492-1.0516-2.3492-2.3492 1.0516-2.3511 2.3492-2.3511 2.3492 1.0536 2.3492 2.3511z" fill="#fff"/>
</g>
<path id="Shape" d="m7.263 25.594s-13.645 15.815 10.074 30.811c3.808-3.6893 4.3524-4.3419 8.8318-7.8938v-2.8545c-5.4265-2.9597-2.9216-6.8306-11.771-17.832l-7.1349-2.2305z" fill="url(#e)" stroke="#000" stroke-width="1.3433"/>
<path id="Shape" d="m184.26 26.297s13.645 15.815-10.074 30.811c-3.808-3.6893-4.3524-4.3419-8.8318-7.8938v-2.8545c5.4265-2.9597 2.9216-6.8306 11.771-17.832l7.1349-2.2305z" fill="url(#d)" stroke="#000" stroke-width="1.3433"/>
<path id="Shape" d="m86.708 120.3c37.428 1.3307 67.417 35.262 67.417 76.946 0 39.342-26.697 71.758-61.163 76.401 24.048-6.714 42.23-38.118 42.23-75.855 0-40.953-21.404-74.458-48.485-77.03v-0.46176z" fill="#7F7F8D"/>
<path id="Shape" d="m95.053 91.069c-11.545 0-21.503 5.6911-26.069 13.89-10.532 3.2527-17.295 8.355-17.295 14.079 0 1.5767 0.54607 3.12 1.5112 4.5758-0.72504 1.6887-1.0914 3.448-1.0914 5.2527 0 13.043 19.999 23.61 44.665 23.61 24.666 0 44.665-10.567 44.665-23.61 0-2.0759-0.51806-4.0928-1.4692-6.0108 0.66952-1.2259 1.0495-2.5118 1.0495-3.8177 0-6.2675-8.1208-11.778-20.402-14.946-4.7674-7.7341-14.427-13.023-25.565-13.023z" fill="url(#c)" stroke="#000" stroke-width="2.6866"/>
<path id="Shape" d="m111.4 98.953c0 8.7112-7.0618 15.773-15.773 15.773-8.7112 0-15.773-7.0618-15.773-15.773 0-8.7112 7.0618-15.773 15.773-15.773 8.7112 0 15.773 7.0618 15.773 15.773z" fill="#000"/>
<path id="Shape" d="m76.485 132.95h17.878v27.243h-17.878v-27.243z" fill="url(#b)" stroke="#000" stroke-width="3.0452"/>
<path id="f" d="m94.581 132.44h17.878v27.243h-17.878v-27.243z" fill="url(#a)" stroke="#000" stroke-width="3.0452"/>
<path d="m59.578 123.74c25.973 14.497 50.262 12.156 73.231-3.3799" stroke="#000" stroke-width="5.3732"/>
</g>
</g>
</svg>
